<?xml version="1.0" encoding="UTF-8" standalone="no"?>
<svg
   xmlns:dc="http://purl.org/dc/elements/1.1/"
   xmlns:cc="http://creativecommons.org/ns#"
   xmlns:rdf="http://www.w3.org/1999/02/22-rdf-syntax-ns#"
   xmlns:svg="http://www.w3.org/2000/svg"
   xmlns="http://www.w3.org/2000/svg"
   xmlns:sodipodi="http://sodipodi.sourceforge.net/DTD/sodipodi-0.dtd"
   xmlns:inkscape="http://www.inkscape.org/namespaces/inkscape"
   viewBox="0 0 25 25"
   version="1.1"
   x="0px"
   y="0px"
   id="svg14"
   sodipodi:docname="d20.svg"
   width="25"
   height="25"
   inkscape:version="1.0.2-2 (e86c870879, 2021-01-15)">
  <metadata
     id="metadata20">
    <rdf:RDF>
      <cc:Work
         rdf:about="">
        <dc:format>image/svg+xml</dc:format>
        <dc:type
           rdf:resource="http://purl.org/dc/dcmitype/StillImage" />
        <dc:title>icon/gaming</dc:title>
      </cc:Work>
    </rdf:RDF>
  </metadata>
  <defs
     id="defs18" />
  <sodipodi:namedview
     pagecolor="#ffffff"
     bordercolor="#666666"
     borderopacity="1"
     objecttolerance="10"
     gridtolerance="10"
     guidetolerance="10"
     inkscape:pageopacity="0"
     inkscape:pageshadow="2"
     inkscape:window-width="3840"
     inkscape:window-height="2050"
     id="namedview16"
     showgrid="false"
     inkscape:zoom="32"
     inkscape:cx="12.834481"
     inkscape:cy="24.537745"
     inkscape:window-x="3348"
     inkscape:window-y="-12"
     inkscape:window-maximized="1"
     inkscape:current-layer="svg14" />
  <title
     id="title2">icon/gaming</title>
  <desc
     id="desc4">Created with Sketch.</desc>
  <g
     stroke="none"
     stroke-width="1"
     fill="none"
     fill-rule="evenodd"
     id="g8"
     style="fill:#ff0000;fill-opacity:1"
     transform="translate(1,1)">
    <path
       d="M 15.159261,5.8014018 15.859612,3 H 8.8561072 Z M 7,3.269381 v 7.380862 L 14.380862,6.549764 Z M 7,19.806287 14.372029,17.348944 7,12.434259 Z M 9.5811388,20 H 15.806287 L 15.183772,18.132455 Z M 15,16.565742 V 7.3497572 L 7.4596493,11.538841 Z m 1,-8.9982212 v 8.7253722 l 4.759294,-4.759294 z m 0.614724,11.6955132 2.713314,-4.883965 -3.255977,3.255976 z m 0.04578,-15.3435063 -0.599318,2.3972745 3.668131,3.0567759 z M 6,18.571337 V 12 H 2.3492572 Z M 2.3492572,11 H 6 V 4.428663 Z M 16.4355,2 c 0.180614,0 0.347189,0.097407 0.435757,0.2548142 l 5.064,8.9999998 c 0.08518,0.151395 0.08569,0.336154 0.0013,0.488008 l -5,9 C 16.848394,20.901554 16.681084,21 16.4995,21 h -10 C 6.3179164,21 6.1506061,20.901554 6.0624214,20.742822 l -5,-9 c -0.0838952,-0.151012 -0.0838952,-0.334632 0,-0.485643 l 5,-9.0000005 C 6.1506061,2.0984459 6.3179164,2 6.4995,2 Z"
       fill="#000000"
       fill-rule="nonzero"
       id="path6"
       style="fill:#ff0000;fill-opacity:1" />
  </g>
</svg>
