<?xml version="1.0" standalone="no"?>
<!DOCTYPE svg PUBLIC "-//W3C//DTD SVG 20010904//EN"
 "http://www.w3.org/TR/2001/REC-SVG-20010904/DTD/svg10.dtd">
<svg version="1.0" xmlns="http://www.w3.org/2000/svg"
 width="700.000000pt" height="700.000000pt" viewBox="0 0 700.000000 700.000000"
 preserveAspectRatio="xMidYMid meet">
<metadata>
Created by potrace 1.11, written by Peter Selinger 2001-2013
</metadata>
<g transform="translate(0.000000,700.000000) scale(0.100000,-0.100000)"
fill="#000000" stroke="none">
<path d="M2035 6142 c-44 -28 -47 -31 -167 -252 -17 -30 -36 -64 -43 -75 -6
-11 -27 -47 -45 -80 -18 -33 -89 -161 -158 -285 -69 -124 -136 -245 -150 -270
-14 -25 -40 -71 -58 -103 -19 -32 -34 -60 -34 -62 0 -2 -38 -70 -84 -152 -46
-82 -99 -178 -118 -214 -31 -55 -419 -752 -515 -924 -89 -159 -105 -198 -100
-237 3 -23 43 -108 98 -206 51 -92 103 -187 117 -212 22 -40 104 -187 187
-335 15 -27 74 -133 130 -235 102 -183 224 -403 272 -490 14 -25 107 -191 206
-370 99 -179 189 -341 200 -360 70 -124 157 -284 158 -289 0 -3 17 -31 37 -61
67 -99 -89 -90 1538 -90 l1431 0 34 23 c33 22 73 83 159 242 24 44 71 130 105
190 34 61 77 137 95 170 28 51 80 145 308 555 13 25 81 146 150 270 69 124
139 250 155 280 17 30 62 111 100 180 39 69 84 150 100 180 16 30 38 69 47 85
10 17 27 46 37 65 47 84 88 158 106 190 67 118 107 205 107 230 0 26 -35 101
-100 215 -13 22 -37 65 -53 95 -17 30 -50 88 -74 128 -24 41 -43 75 -43 77 0
2 -13 26 -28 52 -16 26 -44 77 -64 113 -20 36 -73 130 -118 210 -46 80 -93
163 -105 185 -12 22 -62 112 -112 200 -49 88 -102 183 -118 210 -15 28 -57
102 -93 165 -36 63 -74 131 -85 150 -362 648 -445 791 -473 820 l-34 35 -1438
3 c-1381 2 -1438 1 -1467 -16z m2681 -279 c-3 -10 -46 -184 -97 -388 -50 -203
-93 -372 -94 -373 -3 -3 -271 113 -475 205 -30 14 -111 50 -180 80 -69 31
-150 67 -180 80 -30 14 -212 95 -405 180 -192 85 -375 166 -405 180 -30 14
-68 31 -85 38 -25 11 124 13 948 14 927 1 978 0 973 -16z m-2423 -82 c23 -10
141 -63 262 -116 121 -54 238 -106 260 -116 48 -22 1381 -613 1444 -641 51
-21 52 -20 -49 -75 -30 -17 -75 -41 -100 -55 -45 -26 -560 -312 -635 -353 -22
-13 -299 -166 -615 -342 -316 -176 -585 -325 -597 -332 l-23 -12 0 1031 c0
566 2 1030 6 1030 3 0 24 -9 47 -19z m2726 -289 c39 -68 71 -125 71 -127 0 -2
22 -41 48 -87 26 -46 51 -90 55 -98 4 -8 17 -31 28 -50 20 -33 402 -711 457
-810 14 -25 42 -74 62 -110 68 -118 68 -117 9 -69 -30 24 -56 47 -59 50 -3 3
-102 86 -220 184 -118 98 -237 197 -265 220 -27 24 -109 92 -181 151 -72 60
-152 127 -179 149 -26 22 -52 43 -58 46 -5 4 7 73 32 175 23 93 43 176 45 185
50 202 80 319 82 317 1 -2 34 -59 73 -126z m-3062 -1849 c-2 -2 -232 -2 -510
-1 l-507 3 81 145 c45 80 97 174 117 210 19 36 67 121 105 190 39 69 84 150
100 180 17 30 58 105 92 165 34 61 79 142 100 180 21 39 46 84 55 100 10 17
30 53 45 80 31 57 211 379 262 470 19 33 39 71 46 84 9 20 13 -166 15 -889 1
-502 1 -915 -1 -917z m2519 -1551 c-3 -2 -477 311 -1055 696 l-1051 701 138
77 c75 43 155 88 177 100 22 11 96 52 165 91 69 38 152 85 185 103 33 18 175
97 315 175 140 78 287 159 325 181 39 21 86 47 107 59 132 73 401 223 443 246
28 15 95 52 150 83 l100 56 3 -1282 c1 -705 0 -1283 -2 -1286z m789 2089 c220
-183 411 -343 425 -354 14 -12 77 -65 140 -117 63 -52 117 -97 120 -100 5 -5
132 -112 139 -117 5 -3 -1315 -1323 -1323 -1323 -3 0 -6 547 -6 1216 l0 1216
53 -44 c28 -24 232 -194 452 -377z m-3305 -1738 c0 -504 -2 -914 -4 -912 -3 3
-70 123 -323 579 -14 25 -107 191 -206 370 -99 179 -189 341 -200 360 -11 19
-53 96 -94 170 -42 74 -87 155 -101 180 -13 25 -40 73 -59 108 l-35 62 511 0
511 0 0 -917z m1319 103 c558 -372 1017 -678 1019 -681 2 -2 -38 -17 -90 -34
-51 -17 -194 -65 -318 -106 -124 -42 -232 -78 -240 -80 -33 -9 -386 -127 -405
-135 -18 -8 -537 -181 -560 -186 -5 -2 -104 -35 -220 -73 -115 -39 -213 -71
-217 -71 -5 0 -8 462 -8 1026 0 817 3 1025 13 1021 6 -2 469 -309 1026 -681z
m2190 -252 c-116 -208 -283 -511 -372 -671 l-162 -293 -14 33 c-7 17 -15 39
-16 47 -2 8 -31 96 -64 194 l-61 180 447 447 c246 246 449 446 451 445 1 -2
-93 -174 -209 -382z m-851 -912 c47 -139 83 -255 80 -257 -3 -3 -390 -4 -862
-3 l-857 3 763 256 c420 141 769 256 777 255 9 0 44 -91 99 -254z"/>
</g>
</svg>
